<svg id="e6nscazSgqC1" xmlns="http://www.w3.org/2000/svg" xmlns:xlink="http://www.w3.org/1999/xlink" viewBox="0 0 98.1 118" shape-rendering="geometricPrecision" text-rendering="geometricPrecision"><path d="M91.8,15.6C80.9,-0.1,59.2,-4.7,43.6,5.2L16.1,22.8C8.6,27.5,3.4,35.2,1.9,43.9c-1.3,7.3-.2,14.8,3.3,21.3-2.4,3.6-4,7.6-4.7,11.8-1.6,8.9.5,18.1,5.7,25.4c11,15.7,32.6,20.3,48.2,10.4L81.9,95.3c7.5-4.7,12.7-12.4,14.2-21.1c1.3-7.3.2-14.8-3.3-21.3c2.4-3.6,4-7.6,4.7-11.8c1.7-9-.4-18.2-5.7-25.5" fill="#ff3e00"/><path d="M40.9,103.9c-8.9,2.3-18.2-1.2-23.4-8.7-3.2-4.4-4.4-9.9-3.5-15.3.2-.9.4-1.7.6-2.6l.5-1.6l1.4,1c3.3,2.4,6.9,4.2,10.8,5.4l1,.3-.1,1c-.1,1.4.3,2.9,1.1,4.1c1.6,2.3,4.4,3.4,7.1,2.7.6-.2,1.2-.4,1.7-.7L65.5,72c1.4-.9,2.3-2.2,2.6-3.8s-.1-3.3-1-4.6c-1.6-2.3-4.4-3.3-7.1-2.6-.6.2-1.2.4-1.7.7L47.8,68.4c-1.7,1.1-3.6,1.9-5.6,2.4-8.9,2.3-18.2-1.2-23.4-8.7-3.1-4.4-4.4-9.9-3.4-15.3.9-5.2,4.1-9.9,8.6-12.7L51.5,16.6c1.7-1.1,3.6-1.9,5.6-2.5c8.9-2.3,18.2,1.2,23.4,8.7c3.2,4.4,4.4,9.9,3.5,15.3-.2.9-.4,1.7-.7,2.6l-.5,1.6-1.4-1c-3.3-2.4-6.9-4.2-10.8-5.4l-1-.3.1-1c.1-1.4-.3-2.9-1.1-4.1-1.6-2.3-4.4-3.3-7.1-2.6-.6.2-1.2.4-1.7.7L32.4,46.1c-1.4.9-2.3,2.2-2.6,3.8s.1,3.3,1,4.6c1.6,2.3,4.4,3.3,7.1,2.6.6-.2,1.2-.4,1.7-.7l10.5-6.7c1.7-1.1,3.6-1.9,5.6-2.5c8.9-2.3,18.2,1.2,23.4,8.7c3.2,4.4,4.4,9.9,3.5,15.3-.9,5.2-4.1,9.9-8.6,12.7L46.5,101.4c-1.7,1.1-3.6,1.9-5.6,2.5" fill="#fff"/><polygon points="0,-25.983323 7.636307,-10.510475 24.711608,-8.029288 12.355804,4.014644 15.272614,21.02095 0,12.991661 -15.272614,21.02095 -12.355804,4.014644 -24.711608,-8.029288 -7.636307,-10.510475 0,-25.983323" transform="matrix(-.627792 0.543282-.522644-.603944 69.006225 75.48068)" fill="#ff3e00" stroke-width="0"/><polygon points="0,-25.983323 7.636307,-10.510475 24.711608,-8.029288 12.355804,4.014644 15.272614,21.02095 0,12.991661 -15.272614,21.02095 -12.355804,4.014644 -24.711608,-8.029288 -7.636307,-10.510475 0,-25.983323" transform="matrix(-.358966 0.310644-.305577-.353111 69.006225 75.48068)" fill="#fff000" stroke-width="0"/></svg>
